<?xml version="1.0" encoding="UTF-8"?>
<svg xmlns="http://www.w3.org/2000/svg" viewBox="0 0 1080 1080">
  <g id="DARK-bishop">
    <path d="M742.97,859.5h-405.94c-3.7,0-6.56-4.27-6.2-9.18,3.07-42.53,27.3-76.81,58.51-83.97,49.16-5.85,96.51-5.63,144.16-5.85h41.4c35.33.23,70.4,1.26,105.88,4.5,18.69.79,35.58,11.2,47.92,27.65,11.33,15.08,18.85,35.25,20.47,57.71.35,4.89-2.51,9.14-6.2,9.14Z" style="fill: #7a797f;"/>
    <path d="M574.9,760.5h-41.4c13.86-.06,27.65-.09,41.4,0Z"/>
    <path d="M665.01,686.5h-249.66c-33.74-43.41-53.49-103.87-45.18-170.25,11.79-94.13,85.59-172.26,131.91-211.34-3.26-6.93-4.58-17.42-4.58-24.91,0-23.47,19.03-42.5,42.5-42.5s42.5,19.03,42.5,42.5c0,8.45-1.57,17.55-5.81,24.2.02,0,.04.03.06.05-12.55,15.11-25.71,33.44-40.44,56.53-57.95,90.77-76.88,186.86-74.04,225.72h61.44c8.03-69.99,3.01-99.55,71.79-200,7.89-11.53,16.34-19.4,31.24-32.45,36.66,42.21,72.97,98.93,82.43,162.2,9.91,66.24-9.94,126.77-44.16,170.25Z" style="fill: #4b4a51;"/>
    <path d="M626.74,354.05c-.72-.84-1.45-1.67-2.18-2.5"/>
    <path d="M576.69,304.2c-.37-.33-.74-.65-1.11-.96"/>
    <path d="M504.3,303.06c-.73.61-1.47,1.23-2.22,1.85"/>
    <path d="M730,723.5c0,10.22-4.14,19.46-10.84,26.16-6.7,6.7-15.94,10.84-26.16,10.84h-118.1c-13.75-.09-27.54-.06-41.4,0h-146.5c-20.43,0-37-16.57-37-37,0-10.22,4.14-19.46,10.84-26.16s15.94-10.84,26.16-10.84h306c20.43,0,37,16.57,37,37Z" style="fill: #4b4a51;"/>
    <path d="M574.9,760.5h-41.4c13.86-.06,27.65-.09,41.4,0Z"/>
    <path d="M503.5,307.5c-.51-.79-.98-1.66-1.42-2.59"/>
    <path d="M576.69,304.2c-.06.1-.13.2-.19.3"/>
    <path d="M628.5,352.5c-.6.52-1.18,1.04-1.76,1.55"/>
    <path d="M546.5,684.5h115c1.33-.33,2.67-.67,4-1,6.76-8.76,15.24-21.12,23-37,14.53-29.73,19.34-57.01,21-75,2.8-30.22-1.51-53.24-4-66-1.42-7.29-8.1-39.85-29-78-9.81-17.92-19.97-31.96-28-42,4.12,13.01,9.04,31.47,12,54,3.8,28.91,10.81,82.29-13,138-27.26,63.79-80.05,95.8-101,107Z" style="fill: #2d2a32;"/>
    <path d="M742.97,859.5h-405.94c-3.7,0-6.56-2.91-6.2-6.26,3.07-29,27.3-52.37,58.51-57.25,49.16-3.99,96.51-3.84,144.16-3.99h41.4c35.33.16,70.4.86,105.88,3.07,18.69.54,35.58,7.64,47.92,18.85,11.33,10.28,18.85,24.03,20.47,39.35.35,3.33-2.51,6.23-6.2,6.23Z" style="fill: #4b4a51;"/>
    <path d="M663,758h46.59c1.17-.26,3.4-1.29,5.67-6,.85-1.77,8.6-4.6,9.74-12,1.05-6.83,3.04-14.01,3-18-.04-3.59-2.16-9.46-3-15-.86-5.69-8.03-7.97-8.8-10-.76-2.04-2.49-6.1-5.04-8-1.27-.95-2.37-1.07-3.15-1h-43.44c3.75,1.8,9.85,1.59,14.8,10,.88,1.5,4.26,7.03,5.67,13,1.89,8,2.04,15.87.94,24-.94,7-2.26,8.47-3.78,11-6.21,10.35-14.7,11.12-19.2,12Z" style="fill: #2d2a32;"/>
    <path d="M393,644s0,0,0,0c-3.96-18.38-7.2-66.79-6-100,1.96-54.18,23-99,38-129,17.44-34.88,47-73,64-87,11.03-9.08,19.01-13.19,26.77-15.93.52-.19.38-.96-.17-.96-3.16.03-4.89-.35-6.6-2.12,0,0-2-2-4-5-12.18,10.28-26.03,23.22-39,37-12.63,13.41-31.86,34-51,65-10.32,16.72-22.75,37.17-32,67-9.65,31.13-10.79,56.23-11,62-1.69,46.5,10.05,86.13,21,109Z" style="fill: #7a797f;"/>
    <path d="M356,738c-.39-3.58-.52-9.52,2-16,1.3-3.34,4.07-8.78,13-16,11.66-9.44,24.51-14.38,35-17-10.19-1.22-18.41-.7-24,0-7.6.96-10.57,2.29-12,3-7.44,3.72-11.16,9.87-13,13-1.95,3.32-6.6,11.49-5,22,.75,4.92,2.6,8.67,4,11Z" style="fill: #7a797f;"/>
    <path d="M507,258c1.55-1.54,3.54-3.28,6-5,1.27-.89,3.76-2.52,7-4,5.42-2.47,9.9-3.12,16-4,5.31-.77,9.51-.92,12-1,3.2-.11,5.92-.07,8,0-1.63-.94-4-2.11-7-3-6.06-1.79-11.06-1.31-14-1-3.54.37-9.57,1.01-16,5-6.82,4.23-10.39,9.95-12,13Z" style="fill: #7a797f;"/>
    <path d="M459,590c-2.18-7.09-3.8-19.39-5-32-1.56-16.41-.73-36.7,11-74,16.36-52,38.56-88.28,44-97,11.6-18.57,28.69-42.67,53-68-25.08,33.6-42.35,64.39-54,88-13.31,26.97-31.1,63.65-41,115-5.19,26.89-7.66,51.78-8,68Z" style="fill: #2d2a32;"/>
  </g>
  <g id="OUTLINE-bishop">
    <path d="M680.78,765c18.69.79,35.58,11.2,47.92,27.65,11.33,15.08,18.85,35.25,20.47,57.71.35,4.89-2.52,9.14-6.21,9.14h-405.93c-3.7,0-6.56-4.27-6.2-9.18,3.07-42.53,27.31-76.82,58.51-83.98,49.16-5.85,96.51-5.63,144.16-5.85,49.5-.23,98,0,147.28,4.5Z" style="fill: none; stroke: #000; stroke-miterlimit: 10; stroke-width: 18px;"/>
    <path d="M624.56,351.55c37.39,42.46,74.96,100.17,84.61,164.7,9.91,66.24-9.94,126.77-44.16,170.25" style="fill: none; stroke: #000; stroke-miterlimit: 10; stroke-width: 18px;"/>
    <path d="M576.75,304.25c-.39-.35-.78-.68-1.17-1.01" style="fill: none; stroke: #000; stroke-miterlimit: 10; stroke-width: 18px;"/>
    <path d="M415.35,686.5c-33.74-43.41-53.49-103.87-45.18-170.25,11.98-95.64,87.98-174.77,134.13-213.19" style="fill: none; stroke: #000; stroke-miterlimit: 10; stroke-width: 18px;"/>
    <rect x="350" y="686.5" width="380" height="74" rx="37" ry="37" style="fill: none; stroke: #000; stroke-miterlimit: 10; stroke-width: 18px;"/>
    <path d="M576.5,304.5c4.38-6.68,6-15.92,6-24.5,0-23.47-19.03-42.5-42.5-42.5s-42.5,19.03-42.5,42.5c0,8.5,1.7,20.86,6,27.5" style="fill: none; stroke: #000; stroke-miterlimit: 10; stroke-width: 18px;"/>
    <path d="M576.75,304.25c-12.55,15.11-25.71,33.44-40.44,56.53-57.95,90.77-76.88,186.86-74.04,225.72h61.44c8.03-69.99,15.79-111,73.79-199,6.42-9.74,23.5-20.5,39.5-34.5" style="fill: none; stroke: #000; stroke-miterlimit: 10; stroke-width: 18px;"/>
  </g>
</svg>