<?xml version="1.0" encoding="UTF-8"?>
<svg xmlns="http://www.w3.org/2000/svg" viewBox="0 0 1080 1080">
  <g id="DARK-knight">
    <path d="M712.78,788.54c26.3-50.38,63.51-143.31,47.87-245.35-6.07-39.56-15.23-93.86-63.74-140.33-24.79-23.74-52.98-38.85-73.66-49.95-48.16-25.82-93.17-39.44-124.69-46.92-.46-.11-.72.51-.31.75,3.05,1.85,6.74,4.48,10.28,8.11,5.81,5.96,8.27,11.61,9.92,15.46,1.73,4.08,3.83,10.43,4.2,18.49.02.44-.56.62-.77.23-2.35-4.17-5.74-9.45-10.51-15.16-5.56-6.63-21.76-25.43-52.41-35.68-22.65-7.58-43.05-7.08-54.39-6.03-.35.03-.5.44-.26.69,6.57,6.82,13.97,15.71,20.65,26.75,8.41,13.89,12.95,26.71,15.52,36.64.04.14,0,.28-.1.38-16.91,18.55-33.82,37.08-50.74,55.62-.06.07-.1.16-.11.26-.46,8.24-.94,16.49-1.4,24.72,0,.07-.02.13-.06.19-10.2,17.58-21.47,35.84-33.95,54.61-14.09,21.2-28.32,40.99-42.4,59.36-.06.07-.09.15-.09.25.01,5.57.92,22.58,14.87,36.14,3.54,3.44,10.6,10.3,22.67,13.08,4.5,1.04,8.45,1.22,11.21,1.19.08,0,.15.02.22.07,2.26,1.53,16.08,10.38,32.47,7.06,2.21-.44,9.32-1.96,15.59-7.13,5.14-4.25,7.16-8.86,8.49-11.89,2.29-5.2,2.79-9.82,2.84-12.88,0-.13.07-.25.17-.32,17.84-12.62,35.66-25.22,53.51-37.84.09-.06.19-.09.3-.07,8.62,1.36,35.93,4.66,63.58-8.35,5.86-2.76,33.64-15.85,39.66-38.06,2.07-7.61,2.58-20,2.83-26.16.26-6.19.19-11.43.05-15.3-.01-.41.51-.59.75-.25,4.57,6.4,12.39,19.58,11.95,36.95-.38,15.4-6.95,26.47-11.33,33.3-11.02,17.19-25.09,25.45-39.66,35.68,0,0-40.07,28.11-70.82,65.41-23.37,28.35-32.99,52.06-35.41,58.27-7.31,18.79-9.66,33.99-11.33,45.19-2.25,15.15-5.02,38.93-2.91,63.81" style="fill: #4b4a51;"/>
    <path d="M460.43,428.44c-7.29,7.11-14.59,14.21-21.88,21.31-2.48,2.42-6.64.66-6.64-2.8v-21.31c0-2.16,1.75-3.91,3.91-3.91h21.88c3.51,0,5.25,4.27,2.73,6.71Z"/>
    <path d="M558.5,794.5c20.33-17.24,48.38-44.89,73-85,12.92-21.04,39.31-61.98,53.5-119.5,9.5-38.5,14-108-4-157-13.11-35.68-29-50-56-75,12.64,5.66,29.35,14.46,47,28,10.06,7.72,32.14,24.95,51,54,22.25,34.26,27.93,66.34,33,95,2.17,12.24,5.87,37.12,5,69-1.23,45.06-10.9,78.46-17,99-7.12,23.99-18.8,55.67-38.5,90.5-49,.33-98,.67-147,1Z" style="fill: #2d2a32;"/>
    <path d="M712.78,763c18.69.8,35.58,11.44,47.92,28.23,12.85,17.46,20.8,41.61,20.8,68.27h-419c0-47.69,25.42-87.29,58.84-95.13l291.44-1.37Z" style="fill: #7a797f;"/>
    <path d="M712.78,790c18.69.58,35.58,8.24,47.92,20.33,12.85,12.58,20.8,29.97,20.8,49.17h-419c0-34.35,25.42-62.87,58.84-68.51l291.44-.99Z" style="fill: #4b4a51;"/>
    <path d="M318,559c5.11-5.18,12.02-12.32,20-21,8.86-9.64,21.88-23.81,36-42,10.11-13.02,22.8-30.71,36-53,1-9.33,2-18.67,3-28,10-9,19.24-16.03,31-27,7.79-7.26,10-9,21-18-.06-6.63-.9-15.33-4-25-2.37-7.39-8.12-24.76-25-38-4.83-3.79-13.78-9.76-27-13,3.35,3.89,6.72,8.22,10,13,12.04,17.58,18.45,35.04,22,49-4,5.67-8,11.33-12,17-12.33,13.33-24.67,26.67-37,40-.67,8.33-1.33,16.67-2,25-25,37.67-50,75.33-75,113-1.83,6.02-2.16,9.35-1,10,.73.41,2.07-.26,4-2Z" style="fill: #7a797f;"/>
    <path d="M552,553c13-6,45.22-30.04,53-43,6-10,9.09-19.69,3-40-3-10-12-25-32-31,2.21,2.59,5.1,6.28,8,11,3.59,5.85,9.29,15.14,11,28,2.03,15.28-2.67,27.28-5,33-4.22,10.38-34,37.67-38,42Z" style="fill: #2d2a32;"/>
    <path d="M408,598c1.18-2.57,2.87-7.12,3-13,.11-5.26-1.06-9.45-2-12,1.83-4.68,4.4-9.47,8-14,18.46-23.26,50.63-23.14,57-23-18,13.67-36,27.33-54,41-.24,2.23-.79,5-2,8-2.76,6.84-7.39,11-10,13Z" style="fill: #2d2a32;"/>
  </g>
  <g id="OUTLINE-knight">
    <path d="M420.63,766.52c.3-16.03,2.08-30.42,3.62-40.78,1.67-11.2,4.02-26.4,11.33-45.19,2.42-6.21,12.04-29.92,35.41-58.27,30.75-37.3,70.82-65.41,70.82-65.41,14.57-10.23,28.64-18.49,39.66-35.68,4.38-6.83,10.95-17.9,11.33-33.3.47-18.44-8.37-32.15-12.75-38.05.17,3.95.29,9.7,0,16.65-.25,6.16-.76,18.55-2.83,26.16-6.02,22.21-33.8,35.3-39.66,38.06-27.82,13.09-55.3,9.66-63.74,8.32-17.95,12.69-35.88,25.37-53.82,38.06-.03,3.05-.5,7.76-2.84,13.08-1.33,3.03-3.35,7.64-8.49,11.89-6.27,5.17-13.38,6.69-15.59,7.13-16.65,3.37-30.65-5.82-32.57-7.13-2.76.03-6.76-.13-11.33-1.19-12.07-2.78-19.13-9.64-22.67-13.08-14.06-13.67-14.87-30.84-14.87-36.27,14.11-18.4,28.37-38.23,42.49-59.47,12.5-18.8,23.79-37.09,34-54.7.46-8.32.95-16.65,1.41-24.97,17-18.64,34-37.26,50.99-55.9-2.56-9.96-7.11-22.87-15.58-36.86-6.88-11.37-14.53-20.46-21.24-27.36,11.16-1.1,32.01-1.82,55.24,5.95,30.65,10.25,46.85,29.05,52.41,35.68,5.36,6.41,8.98,12.29,11.33,16.65-.12-8.89-2.4-15.85-4.25-20.22-1.65-3.85-4.11-9.5-9.92-15.46-4.56-4.68-9.37-7.71-12.74-9.52,31.62,7.33,77.88,20.98,127.47,47.57,20.68,11.1,48.87,26.21,73.66,49.95,48.51,46.47,57.67,100.77,63.74,140.33,13.59,88.64-12.71,170.4-37.09,223.37" style="fill: none; stroke: #000; stroke-miterlimit: 10; stroke-width: 18px;"/>
    <path d="M712.78,765c18.69.79,35.58,11.2,47.92,27.65,11.33,15.08,18.85,35.25,20.47,57.71.35,4.89-2.52,9.14-6.21,9.14h-405.93c-3.7,0-6.56-4.27-6.2-9.18,3.07-42.53,27.31-76.82,58.51-83.98,49.16-5.85,96.51-5.63,144.16-5.85,49.5-.23,98,0,147.28,4.5Z" style="fill: none; stroke: #000; stroke-miterlimit: 10; stroke-width: 18px;"/>
  </g>
</svg>