<?xml version="1.0" encoding="UTF-8"?>
<svg xmlns="http://www.w3.org/2000/svg" viewBox="0 0 1080 1080">
  <g id="DARK-rook">
    <path d="M712.78,763c18.69.8,35.58,11.44,47.92,28.23,12.85,17.46,20.8,41.61,20.8,68.27h-419c0-47.69,25.42-87.29,58.84-95.13l291.44-1.37Z" style="fill: #fff;"/>
    <path d="M712.78,765c18.69.79,35.58,11.2,47.92,27.65,11.33,15.08,18.85,35.25,20.47,57.71.35,4.89-2.52,9.14-6.21,9.14h-405.93c-3.7,0-6.56-4.27-6.2-9.18,3.07-42.53,27.31-76.82,58.51-83.98,49.16-5.85,96.51-5.63,144.16-5.85,49.5-.23,98,0,147.28,4.5Z" style="fill: #fafdf6;"/>
    <path d="M692.33,284.01c6.8.42,13.75.93,20.84,1.55,7.11.62,14.06,1.32,20.85,2.09,2.95,0,5.24,6,4.96,12.9-1.3,31.69-7.3,60.15-16.35,81.44-9.85,23.21-23.33,37.91-38.25,39.01l-232.65-1.9c-24.91-10.1-44.25-58.49-46.7-118.51-.14-3.26,1.46-6.4,3.19-9.61,1.45-2.68,4.35-3.27,5.54-3.72,9.92-3.82,38.45-3.26,39.92-3.23,5.44,21.65,10.88,43.29,16.32,64.94,16.67-2.71,33.33-5.41,50-8.12.51-7.36,1.02-14.72,1.53-22.08l2.47-35.74c18.43-1.98,33.7-3.04,45-3.04h21c10.67,1.01,21.33,2.03,32,3.04,1,19.27,2,38.55,3,57.82,17,3.38,34,6.76,51,10.14,5.67-18.94,11.33-37.87,17-56.81-.22-3.4-.45-6.8-.67-10.19Z" style="fill: #4b4a51;"/>
    <path d="M518.5,281.5c20.67-3.25,37.11-4,56-4s34.33.75,53,4" style="fill: #fafdf6;"/>
    <path d="M521.5,280.5l-2.51,59.22c-15.75,3.05-31.5,6.1-47.25,9.15-6.91-21.82-13.82-43.65-20.72-65.47" style="fill: none;"/>
    <polyline points="695 283.37 674.27 348.87 627.01 339.72 624.5 280.5" style="fill: none;"/>
    <line x1="451.5" y1="419.5" x2="423.5" y2="766.5" style="fill: #fafdf6;"/>
    <line x1="712.5" y1="764.5" x2="684.5" y2="420.5" style="fill: #fafdf6;"/>
    <path d="M712.78,765c18.69.79,35.58,11.2,47.92,27.65,11.33,15.08,18.85,35.25,20.47,57.71.35,4.89-2.52,9.14-6.21,9.14h-405.93c-3.7,0-6.56-4.27-6.2-9.18,3.07-42.53,27.31-76.82,58.51-83.98,49.16-5.85,96.51-5.63,144.16-5.85,49.5-.23,98,0,147.28,4.5Z" style="fill: #fafdf6;"/>
    <path d="M712.78,765c18.69.79,35.58,11.2,47.92,27.65,11.33,15.08,18.85,35.25,20.47,57.71.35,4.89-2.52,9.14-6.21,9.14h-405.93c-3.7,0-6.56-4.27-6.2-9.18,3.07-42.53,27.31-76.82,58.51-83.98,49.16-5.85,96.51-5.63,144.16-5.85,49.5-.23,98,0,147.28,4.5Z" style="fill: #7a797f;"/>
    <path d="M712.78,789.38c18.69.58,35.58,8.31,47.92,20.51,11.33,11.19,18.85,26.16,20.47,42.82.35,3.63-2.52,6.78-6.21,6.78h-405.93c-3.7,0-6.56-3.17-6.2-6.81,3.07-31.56,27.31-57,58.51-62.31,49.16-4.34,96.51-4.17,144.16-4.34,49.5-.17,98,0,147.28,3.34Z" style="fill: #4b4a51;"/>
    <path d="M710,762c-5.65-.36-11.32-.69-17-1-91.98-5-181.09-3.21-267,4,9-114.67,18-229.33,27-344,76.67.67,153.33,1.33,230,2l27,339Z" style="fill: #4b4a51;"/>
    <path d="M510,421c44.67.33,130.33.67,175,1,8.67,114,17.33,228,26,342-20-.33-30-1.67-50-2,7-22,4-87,2-113-8.33-108.28-18.39-147.84-51-188-11.47-14.12-50-37-102-40Z" style="fill: #2d2a32;"/>
    <path d="M658.5,418.5h28c3.15-.57,7.95-1.84,13-5,6.57-4.11,10.26-9.46,13-14,2.95-4.89,10.48-18.27,17-45,4.07-16.7,5.46-29.21,6-35,.77-8.29.99-15.44,1-21-.33-1.67-.67-3.33-1-5-.67-.67-1.33-1.33-2-2-3-.33-6-.67-9-1-.42,14.34-2.86,36.01-13,60-15.41,36.45-40.1,58.15-53,68Z" style="fill: #2d2a32;"/>
    <path d="M429,393c-4.8-14.54-6.97-27.32-8-37-.46-4.36-2.22-22.4,1-46,1.17-8.57,2.71-15.73,4-21-4.33,1-8.67,2-13,3-.53.53-2.03,2.03-2.58,2.58q-.41.41-.42.42c-2.04,2.22-2,6-2,6h0s.7,16.01,2,28c1.21,11.17,3.44,30.45,13,52,2.32,5.24,4.53,9.38,6,12Z" style="fill: #7a797f;"/>
    <path d="M521,322c1.13-2.62,2.48-5.31,4.09-8,11.08-18.46,28.82-27.62,39.91-32-13.38.75-26.77,1.49-40.15,2.24l-.78.76c-1.02,12.33-2.05,24.67-3.07,37Z" style="fill: #7a797f;"/>
    <path d="M689,311c2.41-2.43,3-7,12-15,4.3-3.82,9.45-4.88,13-6-6-.67-12-1.33-18-2-1.67,5.33-5.33,17.67-7,23Z" style="fill: #7a797f;"/>
  </g>
  <g id="OUTLINE-rook">
    <path d="M712.78,765c18.69.79,35.58,11.2,47.92,27.65,11.33,15.08,18.85,35.25,20.47,57.71.35,4.89-2.52,9.14-6.21,9.14h-405.93c-3.7,0-6.56-4.27-6.2-9.18,3.07-42.53,27.31-76.82,58.51-83.98,49.16-5.85,96.51-5.63,144.16-5.85,49.5-.23,98,0,147.28,4.5Z" style="fill: none; stroke: #000; stroke-linecap: round; stroke-miterlimit: 10; stroke-width: 18px;"/>
    <path d="M694.15,286.07c13.28.84,26.58,1.97,39.87,3.47,2.95,0,5.24,5.91,4.96,12.72-1.3,31.24-7.3,59.3-16.35,80.28-9.81,22.8-23.23,37.27-38.09,38.44-.05,0-.11.02-.16.02l-232.65-1.87c-24.91-9.96-44.25-57.66-46.7-116.83-.14-3.21,1.46-6.31,3.19-9.47,1.12-2.06,3.2-3.44,5.54-3.67,13.05-1.3,25.7-2.29,38.1-3.06" style="fill: none; stroke: #000; stroke-linecap: round; stroke-miterlimit: 10; stroke-width: 18px;"/>
    <path d="M521.39,283.06c19.33-2.88,35.11-3.56,53.11-3.56s32.65.67,50.11,3.52" style="fill: none; stroke: #000; stroke-linecap: round; stroke-miterlimit: 10; stroke-width: 18px;"/>
    <polyline points="451.86 286.1 471.73 348.87 518.99 339.72 521.39 283.06" style="fill: none; stroke: #000; stroke-linecap: round; stroke-miterlimit: 10; stroke-width: 18px;"/>
    <polyline points="624.61 283.02 627.01 339.72 674.27 348.87 694.15 286.07" style="fill: none; stroke: #000; stroke-linecap: round; stroke-miterlimit: 10; stroke-width: 18px;"/>
    <line x1="451.5" y1="419.5" x2="423.5" y2="766.5" style="fill: none; stroke: #000; stroke-linecap: round; stroke-miterlimit: 10; stroke-width: 18px;"/>
    <line x1="712.5" y1="764.5" x2="684.5" y2="420.5" style="fill: none; stroke: #000; stroke-linecap: round; stroke-miterlimit: 10; stroke-width: 18px;"/>
    <path d="M712.78,765c18.69.79,35.58,11.2,47.92,27.65,11.33,15.08,18.85,35.25,20.47,57.71.35,4.89-2.52,9.14-6.21,9.14h-405.93c-3.7,0-6.56-4.27-6.2-9.18,3.07-42.53,27.31-76.82,58.51-83.98,49.16-5.85,96.51-5.63,144.16-5.85,49.5-.23,98,0,147.28,4.5Z" style="fill: none; stroke: #000; stroke-linecap: round; stroke-miterlimit: 10; stroke-width: 18px;"/>
    <path d="M712.78,765c18.69.79,35.58,11.2,47.92,27.65,11.33,15.08,18.85,35.25,20.47,57.71.35,4.89-2.52,9.14-6.21,9.14h-405.93c-3.7,0-6.56-4.27-6.2-9.18,3.07-42.53,27.31-76.82,58.51-83.98,49.16-5.85,96.51-5.63,144.16-5.85,49.5-.23,98,0,147.28,4.5Z" style="fill: none; stroke: #000; stroke-linecap: round; stroke-miterlimit: 10; stroke-width: 18px;"/>
    <path d="M712.78,765c18.69.79,35.58,11.2,47.92,27.65,11.33,15.08,18.85,35.25,20.47,57.71.35,4.89-2.52,9.14-6.21,9.14h-405.93c-3.7,0-6.56-4.27-6.2-9.18,3.07-42.53,27.31-76.82,58.51-83.98,49.16-5.85,96.51-5.63,144.16-5.85,49.5-.23,98,0,147.28,4.5Z" style="fill: none; stroke: #000; stroke-linecap: round; stroke-miterlimit: 10; stroke-width: 18px;"/>
  </g>
</svg>