<?xml version="1.0" encoding="UTF-8"?>
<svg xmlns="http://www.w3.org/2000/svg" viewBox="0 0 1080 1080">
  <g id="DARK-king">
    <path d="M680.78,765c18.69.79,35.58,11.2,47.92,27.65,11.33,15.08,18.85,35.25,20.47,57.71.35,4.89-2.52,9.14-6.21,9.14h-405.93c-3.7,0-6.56-4.27-6.2-9.18,3.07-42.53,27.31-76.82,58.51-83.98,49.16-5.85,96.51-5.63,144.16-5.85,49.5-.23,98,0,147.28,4.5Z" style="fill: none;"/>
    <rect x="378.5" y="686.5" width="323" height="74" rx="37" ry="37" style="fill: none;"/>
    <path d="M623.66,686.5l9.57-21.17h0c-7.45-15.69-4.35-33.46-2.4-43.83.36-1.9.73-3.8,1.13-5.7,12.83-61.59,46.06-126.73,77.87-190.3,1.1-2.2,5.06-11.61,6.46-14.55l-23.79-27.45h-35.02" style="fill: none;"/>
    <polyline points="590.22 760.5 589.96 760.66 589.95 760.66 589.85 760.66 589.72 760.65 586.58 760.5 586.53 760.61 586.48 760.61 525.07 760.54 524.57 760.54 492.92 760.5 493.03 760.73 492.81 760.74 492.8 760.74 492.79 760.74 492.78 760.74 492.77 760.74 492.76 760.74 492.75 760.74 492.74 760.74 492.73 760.74 492.39 760.5" style="fill: none;"/>
    <path d="M626,686.5h-172l-6.69-19.59c8.46-16.05,5.2-34.69,3.19-45.41-11.9-63.26-46.21-130.46-79-196-.91-1.84-4.65-9.31-6.75-13.5-.45-.89-.82-1.64-1.08-2.15l22.83-26.35h35.02" style="fill: none;"/>
    <path d="M485.48,383.5c0,.17.02.33.02.5,0,7.03-9.66,12.97-22.9,14.86-2.88.42-5.94.64-9.1.64-14.79,0-27.24-4.86-30.9-11.47h-.01c-.71-1.28-1.09-2.63-1.09-4.03,0-.17.01-.33.02-.5" style="fill: none;"/>
    <path d="M593.52,383.5c-.01.17-.02.33-.02.5,0,7.04,9.69,12.98,22.95,14.87l.25.03h.03c.76.11,1.53.21,2.32.28l.2.02c2.02.2,4.11.3,6.25.3.17,0,.33,0,.5-.01.69,0,1.38,0,2.06-.04h.03c14.79-.57,26.75-6.02,29.02-13.03.26-.79.39-1.6.39-2.42,0-.17-.01-.33-.02-.5" style="fill: none;"/>
    <polyline points="570 316.5 570 302.88 570 289.5 510 289.5 510 302.9 510 316.5" style="fill: #4b4a51;"/>
    <polyline points="510 316.5 487.35 316.5 461.5 316.5 461.5 355.1 461.5 364.5 510 364.5" style="fill: #4b4a51;"/>
    <polyline points="570 364.5 618.5 364.5 618.5 348.32 618.5 316.5 593.91 316.5 570 316.5" style="fill: #4b4a51;"/>
    <path d="M682.78,765c18.69.79,35.58,11.2,47.92,27.65,11.33,15.08,18.85,35.25,20.47,57.71.35,4.89-2.52,9.14-6.21,9.14h-405.93c-3.7,0-6.56-4.27-6.2-9.18,3.07-42.53,27.31-76.82,58.51-83.98,49.16-5.85,96.51-5.63,144.16-5.85,49.5-.23,98,0,147.28,4.5Z" style="fill: #7a797f;"/>
    <rect x="378.5" y="686.5" width="323" height="74" rx="37" ry="37" style="fill: #4b4a51;"/>
    <path d="M716.29,410.95c-1.4,2.94-5.36,12.35-6.46,14.55-.99,1.99-1.99,3.97-2.99,5.96-.55,1.11-1.1,2.22-1.66,3.32-1.72,3.43-3.43,6.86-5.15,10.3-1.71,3.43-3.43,6.87-5.13,10.31-2.76,5.55-5.5,11.12-8.21,16.68-.76,1.56-1.52,3.12-2.27,4.68-1.01,2.08-2.02,4.17-3.02,6.26-1.34,2.79-2.67,5.59-3.99,8.39-.95,2-1.89,4.01-2.82,6.01-.93,2-1.85,4-2.77,6-1.84,4-3.64,7.99-5.41,11.99-.89,2-1.77,3.99-2.63,5.99-.44,1-.87,1.99-1.3,2.99-.54,1.27-1.09,2.54-1.62,3.8-.31.73-.62,1.46-.92,2.18-1.26,2.99-2.5,5.98-3.7,8.96-.26.64-.52,1.27-.77,1.9-.55,1.36-1.08,2.71-1.62,4.06,0,.02,0,.04-.02.06-.39.98-.77,1.95-1.14,2.92-.84,2.15-1.66,4.29-2.46,6.43-.32.83-.62,1.66-.93,2.48-.79,2.14-1.56,4.26-2.32,6.39-.3.84-.59,1.67-.88,2.5-.43,1.23-.86,2.45-1.27,3.67-.27.77-.53,1.53-.78,2.29-.26.77-.51,1.54-.77,2.3t-.01.02c-.72,2.16-1.41,4.32-2.08,6.47-.34,1.06-.67,2.13-.99,3.19-.28.9-.55,1.8-.81,2.69-.18.57-.35,1.14-.51,1.71-.03.1-.06.21-.09.31-.22.73-.43,1.45-.63,2.17,0,.04-.02.07-.03.11-.15.52-.3,1.03-.44,1.55-.55,1.95-1.09,3.9-1.6,5.85-.33,1.25-.65,2.49-.97,3.74,0,.01-.01.03-.01.04-.03.13-.07.26-.1.39-.26,1.03-.51,2.07-.76,3.1-.29,1.16-.56,2.32-.83,3.49-.01.06-.03.12-.04.18-.17.71-.32,1.42-.48,2.13-.33,1.45-.64,2.9-.94,4.34-.4,1.9-.77,3.8-1.13,5.7-1.95,10.37-5.05,28.14,2.4,43.82h0s-7.23,16-7.23,16l-2.34,5.18-1.29-2.31h0s-33.42-59.68-33.42-59.68l-126.35-225.65c13.24-1.89,22.9-7.83,22.9-14.86,0-.17-.01-.33-.02-.5h1.69l129.28,15.37.25.03h.03l2.32.28.2.02,6.75.8c.66-.16,1.35-.35,2.06-.55h.03c9.26-2.66,22.42-8.48,29.02-13.03.71-.49,1.35-.97,1.89-1.42.71-.59,1.44-1.09,2.18-1.5,5.9-3.29,12.65-1.16,19.69,0,3.82.63,7.73.97,11.63,0,7.93,9.15,15.86,18.3,23.79,27.45Z" style="fill: #4b4a51;"/>
    <polygon points="590.22 760.5 589.96 760.66 589.95 760.66 589.85 760.66 589.72 760.65 586.58 760.5 586.53 760.61 586.48 760.61 525.07 760.54 524.57 760.54 492.92 760.5 493.03 760.73 492.81 760.74 492.8 760.74 492.79 760.74 492.78 760.74 492.77 760.74 492.76 760.74 492.75 760.74 492.74 760.74 492.73 760.74 492.39 760.5 590.22 760.5" style="fill: #4b4a51;"/>
    <path d="M626,399.49v287.01h-172l-6.69-19.59c.3-.56.58-1.12.84-1.69,0-.02.02-.05.03-.07.03-.05.05-.11.07-.16.19-.37.35-.73.51-1.11.2-.45.38-.9.56-1.35.06-.15.12-.3.16-.44.02-.06.04-.11.07-.17.14-.37.28-.74.4-1.11.15-.41.28-.83.41-1.25.17-.54.33-1.08.48-1.62.14-.5.27-1.01.4-1.52.12-.51.23-1.01.34-1.52.01-.02.02-.03.01-.05.07-.3.13-.6.19-.91.03-.16.06-.33.09-.5.05-.25.1-.51.14-.77.02-.1.03-.19.05-.29v-.06c.07-.42.13-.83.19-1.24.12-.85.22-1.7.29-2.54.03-.24.05-.47.06-.7.01-.03.01-.06.01-.09v-.02c.05-.61.09-1.2.12-1.8.02-.39.04-.77.05-1.16,0-.03,0-.05,0-.08v-.07c.01-.28.02-.56.02-.83.02-.49.02-.97.02-1.45.01-8.06-1.32-15.45-2.33-20.84-11.9-63.26-46.21-130.46-79-196-.91-1.84-4.65-9.31-6.75-13.5-.45-.89-.82-1.64-1.08-2.15,7.61-8.78,15.22-17.57,22.83-26.35,2.63.52,5.36.38,8.11,0,7.73-1.06,15.61-4.06,21.69,0,.24.15.47.32.7.5,1.99,1.55,3.84,2.87,5.59,4.03h0c3.66,6.61,16.11,11.47,30.9,11.47,3.16,0,6.22-.22,9.1-.64,13.24-1.89,22.9-7.83,22.9-14.86,0-.17-.01-.33-.02-.5h108.04c-.01.17-.02.33-.02.5,0,7.04,9.69,12.98,22.95,14.87l.25.03h.03l2.32.28.2.02c2.02.2,4.11.3,6.25.3.17,0,.33,0,.5-.01Z" style="fill: #4b4a51;"/>
    <path d="M579,684c6-5.67,12-11.33,18-17-2.07-4.46-3.35-8.08-4-10-19.18-57.05,27.12-119.94,119.72-245.72.08-.11.23-.3.28-.28.99.47-27.3,62.21-62,137-7.33,25-14.67,50-22,75-.67,9.33-1.33,18.67-2,28,1.33,4.67,2.67,9.33,4,14-3,6.67-6,13.33-9,20-14.33-.33-28.67-.67-43-1Z" style="fill: #2d2a32;"/>
    <path d="M633,758h46.59c1.17-.26,3.4-1.29,5.67-6,.85-1.77,8.6-4.6,9.74-12,1.05-6.83,3.04-14.01,3-18-.04-3.59-2.16-9.46-3-15-.86-5.69-8.03-7.97-8.8-10-.76-2.04-2.49-6.1-5.04-8-1.27-.95-2.37-1.07-3.15-1h-43.44c3.75,1.8,9.85,1.59,14.8,10,.88,1.5,4.26,7.03,5.67,13,1.89,8,2.04,15.87.94,24-.94,7-2.26,8.47-3.78,11-6.21,10.35-14.7,11.12-19.2,12Z" style="fill: #2d2a32;"/>
    <path d="M743.97,859.5h-405.94c-3.7,0-6.56-2.91-6.2-6.26,3.07-29,27.3-52.37,58.51-57.25,49.16-3.99,96.51-3.84,144.16-3.99h41.4c35.33.16,70.4.86,105.88,3.07,18.69.54,35.58,7.64,47.92,18.85,11.33,10.28,18.85,24.03,20.47,39.35.35,3.33-2.51,6.23-6.2,6.23Z" style="fill: #4b4a51;"/>
    <path d="M385,738c-.39-3.58-.52-9.52,2-16,1.3-3.34,4.07-8.78,13-16,11.66-9.44,24.51-14.38,35-17-10.19-1.22-18.41-.7-24,0-7.6.96-10.57,2.29-12,3-7.44,3.72-11.16,9.87-13,13-1.95,3.32-6.6,11.49-5,22,.75,4.92,2.6,8.67,4,11Z" style="fill: #7a797f;"/>
    <path d="M449,668c3.26-1.94,8.05-5.37,12-11,6.29-8.96,7.26-18.93,7-29-1.33-51.81-33-93-33-93-6.69-8.7-12.96-15.11-17-19,2.42,5.85,5.94,14.48,10,25,15.73,40.72,23.62,61.54,25,84,.62,10.05.41,24.82-4,43Z" style="fill: #7a797f;"/>
    <path d="M375,427c-2.67-5.67-5.33-11.33-8-17,5-5.67,10-11.33,15-17-2.19,3.25-5.49,9.04-7,17-1.37,7.23-.7,13.28,0,17Z" style="fill: #7a797f;"/>
    <rect x="509" y="316" width="61" height="66" style="fill: #4b4a51;"/>
  </g>
  <g id="OUTLINE-king">
    <path d="M680.78,765c18.69.79,35.58,11.2,47.92,27.65,11.33,15.08,18.85,35.25,20.47,57.71.35,4.89-2.52,9.14-6.21,9.14h-405.93c-3.7,0-6.56-4.27-6.2-9.18,3.07-42.53,27.31-76.82,58.51-83.98,49.16-5.85,96.51-5.63,144.16-5.85,49.5-.23,98,0,147.28,4.5Z" style="fill: none; stroke: #000; stroke-linecap: round; stroke-miterlimit: 10; stroke-width: 18px;"/>
    <rect x="378.5" y="686.5" width="323" height="74" rx="37" ry="37" style="fill: none; stroke: #000; stroke-linecap: round; stroke-miterlimit: 10; stroke-width: 18px;"/>
    <polyline points="485.48 383.5 487.17 383.5 593.52 383.5" style="fill: none; stroke: #000; stroke-linecap: round; stroke-miterlimit: 10; stroke-width: 18px;"/>
    <path d="M623.66,686.5l9.57-21.17h0c-7.45-15.69-4.35-33.46-2.4-43.83.36-1.9.73-3.8,1.13-5.7,12.83-61.59,46.06-126.73,77.87-190.3,1.1-2.2,5.06-11.61,6.46-14.55l-23.79-27.45h-35.02" style="fill: none; stroke: #000; stroke-linecap: round; stroke-miterlimit: 10; stroke-width: 18px;"/>
    <polyline points="590.22 760.5 589.96 760.66 589.95 760.66 589.85 760.66 589.72 760.65 586.58 760.5 586.53 760.61 586.48 760.61 525.07 760.54 524.57 760.54 492.92 760.5 493.03 760.73 492.81 760.74 492.8 760.74 492.79 760.74 492.78 760.74 492.77 760.74 492.76 760.74 492.75 760.74 492.74 760.74 492.73 760.74 492.39 760.5" style="fill: none; stroke: #000; stroke-linecap: round; stroke-miterlimit: 10; stroke-width: 18px;"/>
    <path d="M626,686.5h-172l-6.69-19.59c8.46-16.05,5.2-34.69,3.19-45.41-11.9-63.26-46.21-130.46-79-196-.91-1.84-4.65-9.31-6.75-13.5-.45-.89-.82-1.64-1.08-2.15l22.83-26.35h35.02" style="fill: none; stroke: #000; stroke-linecap: round; stroke-miterlimit: 10; stroke-width: 18px;"/>
    <line x1="633.23" y1="665.33" x2="633.23" y2="665.32" style="fill: none; stroke: #000; stroke-linecap: round; stroke-miterlimit: 10; stroke-width: 18px;"/>
    <path d="M485.48,383.5c0,.17.02.33.02.5,0,8.56-14.33,15.5-32,15.5s-32-6.94-32-15.5c0-.17.01-.33.02-.5" style="fill: none; stroke: #000; stroke-linecap: round; stroke-miterlimit: 10; stroke-width: 18px;"/>
    <path d="M657.48,383.5c.01.17.02.33.02.5,0,8.56-14.33,15.5-32,15.5s-32-6.94-32-15.5c0-.17.01-.33.02-.5" style="fill: none; stroke: #000; stroke-linecap: round; stroke-miterlimit: 10; stroke-width: 18px;"/>
    <line x1="570" y1="383.5" x2="570" y2="364.5" style="fill: none; stroke: #000; stroke-linecap: round; stroke-miterlimit: 10; stroke-width: 18px;"/>
    <line x1="510" y1="383.5" x2="510" y2="364.5" style="fill: none; stroke: #000; stroke-linecap: round; stroke-miterlimit: 10; stroke-width: 18px;"/>
    <polyline points="510 316.5 510 289.5 570 289.5 570 316.5" style="fill: none; stroke: #000; stroke-linecap: round; stroke-miterlimit: 10; stroke-width: 18px;"/>
    <polyline points="510 364.5 461.5 364.5 461.5 316.5 510 316.5" style="fill: none; stroke: #000; stroke-linecap: round; stroke-miterlimit: 10; stroke-width: 18px;"/>
    <polyline points="570 316.5 618.5 316.5 618.5 364.5 570 364.5" style="fill: none; stroke: #000; stroke-linecap: round; stroke-miterlimit: 10; stroke-width: 18px;"/>
  </g>
</svg>