<?xml version="1.0" encoding="UTF-8"?>
<svg xmlns="http://www.w3.org/2000/svg" viewBox="0 0 1080 1080">
  <g id="LIGHT-rook">
    <path d="M712.78,763c18.69.8,35.58,11.44,47.92,28.23,12.85,17.46,20.8,41.61,20.8,68.27h-419c0-47.69,25.42-87.29,58.84-95.13l291.44-1.37Z" style="fill: #fff;"/>
    <path d="M712.78,765c18.69.79,35.58,11.2,47.92,27.65,11.33,15.08,18.85,35.25,20.47,57.71.35,4.89-2.52,9.14-6.21,9.14h-405.93c-3.7,0-6.56-4.27-6.2-9.18,3.07-42.53,27.31-76.82,58.51-83.98,49.16-5.85,96.51-5.63,144.16-5.85,49.5-.23,98,0,147.28,4.5Z" style="fill: #fafdf6;"/>
    <path d="M692.33,285.95c6.8.41,13.75.92,20.84,1.53,7.11.61,14.06,1.3,20.85,2.06,2.95,0,5.24,5.91,4.96,12.72-1.3,31.24-7.3,59.3-16.35,80.28-9.85,22.88-23.33,37.37-38.25,38.46l-232.65-1.87c-24.91-9.96-44.25-57.66-46.7-116.83-.14-3.21,1.46-6.31,3.19-9.47,1.45-2.65,4.35-3.22,5.54-3.67,9.92-3.76,38.45-3.21,39.92-3.18l16.32,64.02c16.67-2.67,33.33-5.33,50-8,1.33-19,2.67-38,4-57l45-3h21c10.67,1,21.33,2,32,3l3,57c17,3.33,34,6.67,51,10,5.67-18.67,11.33-37.33,17-56-.22-3.35-.45-6.7-.67-10.05Z" style="fill: #fafdf6;"/>
    <path d="M518.5,283.5c20.67-3.25,37.11-4,56-4s34.33.75,53,4" style="fill: #fafdf6;"/>
    <path d="M521.5,280.5l-2.51,59.22c-15.75,3.05-31.5,6.1-47.25,9.15-6.91-21.82-13.82-43.65-20.72-65.47" style="fill: none;"/>
    <polyline points="695 283.37 674.27 348.87 627.01 339.72 624.5 280.5" style="fill: none;"/>
    <line x1="451.5" y1="419.5" x2="423.5" y2="766.5" style="fill: #fafdf6;"/>
    <line x1="712.5" y1="764.5" x2="684.5" y2="420.5" style="fill: #fafdf6;"/>
    <path d="M712.78,765c18.69.79,35.58,11.2,47.92,27.65,11.33,15.08,18.85,35.25,20.47,57.71.35,4.89-2.52,9.14-6.21,9.14h-405.93c-3.7,0-6.56-4.27-6.2-9.18,3.07-42.53,27.31-76.82,58.51-83.98,49.16-5.85,96.51-5.63,144.16-5.85,49.5-.23,98,0,147.28,4.5Z" style="fill: #fafdf6;"/>
    <path d="M712.78,765c18.69.79,35.58,11.2,47.92,27.65,11.33,15.08,18.85,35.25,20.47,57.71.35,4.89-2.52,9.14-6.21,9.14h-405.93c-3.7,0-6.56-4.27-6.2-9.18,3.07-42.53,27.31-76.82,58.51-83.98,49.16-5.85,96.51-5.63,144.16-5.85,49.5-.23,98,0,147.28,4.5Z" style="fill: #fff;"/>
    <path d="M712.78,789.38c18.69.58,35.58,8.31,47.92,20.51,11.33,11.19,18.85,26.16,20.47,42.82.35,3.63-2.52,6.78-6.21,6.78h-405.93c-3.7,0-6.56-3.17-6.2-6.81,3.07-31.56,27.31-57,58.51-62.31,49.16-4.34,96.51-4.17,144.16-4.34,49.5-.17,98,0,147.28,3.34Z" style="fill: #fafdf6;"/>
    <path d="M710,762c-5.65-.36-11.32-.69-17-1-91.98-5-181.09-3.21-267,4,9-114.67,18-229.33,27-344,76.67.67,153.33,1.33,230,2l27,339Z" style="fill: #fafdf6;"/>
    <path d="M510,421c44.67.33,130.33.67,175,1,8.67,114,17.33,228,26,342-20-.33-30-1.67-50-2,7-22,4-87,2-113-8.33-108.28-18.39-147.84-51-188-11.47-14.12-50-37-102-40Z" style="fill: #d8d8d8;"/>
    <path d="M658.5,418.5h28c3.15-.57,7.95-1.84,13-5,6.57-4.11,10.26-9.46,13-14,2.95-4.89,10.48-18.27,17-45,4.07-16.7,5.46-29.21,6-35,.77-8.29.99-15.44,1-21-.33-1.67-.67-3.33-1-5-.67-.67-1.33-1.33-2-2-3-.33-6-.67-9-1-.42,14.34-2.86,36.01-13,60-15.41,36.45-40.1,58.15-53,68Z" style="fill: #d8d8d8;"/>
  </g>
  <g id="OUTLINE-rook">
    <path d="M712.78,765c18.69.79,35.58,11.2,47.92,27.65,11.33,15.08,18.85,35.25,20.47,57.71.35,4.89-2.52,9.14-6.21,9.14h-405.93c-3.7,0-6.56-4.27-6.2-9.18,3.07-42.53,27.31-76.82,58.51-83.98,49.16-5.85,96.51-5.63,144.16-5.85,49.5-.23,98,0,147.28,4.5Z" style="fill: none; stroke: #000; stroke-linecap: round; stroke-miterlimit: 10; stroke-width: 18px;"/>
    <path d="M694.15,286.07c13.28.84,26.58,1.97,39.87,3.47,2.95,0,5.24,5.91,4.96,12.72-1.3,31.24-7.3,59.3-16.35,80.28-9.81,22.8-23.23,37.27-38.09,38.44-.05,0-.11.02-.16.02l-232.65-1.87c-24.91-9.96-44.25-57.66-46.7-116.83-.14-3.21,1.46-6.31,3.19-9.47,1.12-2.06,3.2-3.44,5.54-3.67,13.05-1.3,25.7-2.29,38.1-3.06" style="fill: none; stroke: #000; stroke-linecap: round; stroke-miterlimit: 10; stroke-width: 18px;"/>
    <path d="M521.39,283.06c19.33-2.88,35.11-3.56,53.11-3.56s32.65.67,50.11,3.52" style="fill: none; stroke: #000; stroke-linecap: round; stroke-miterlimit: 10; stroke-width: 18px;"/>
    <polyline points="451.86 286.1 471.73 348.87 518.99 339.72 521.39 283.06" style="fill: none; stroke: #000; stroke-linecap: round; stroke-miterlimit: 10; stroke-width: 18px;"/>
    <polyline points="624.61 283.02 627.01 339.72 674.27 348.87 694.15 286.07" style="fill: none; stroke: #000; stroke-linecap: round; stroke-miterlimit: 10; stroke-width: 18px;"/>
    <line x1="451.5" y1="419.5" x2="423.5" y2="766.5" style="fill: none; stroke: #000; stroke-linecap: round; stroke-miterlimit: 10; stroke-width: 18px;"/>
    <line x1="712.5" y1="764.5" x2="684.5" y2="420.5" style="fill: none; stroke: #000; stroke-linecap: round; stroke-miterlimit: 10; stroke-width: 18px;"/>
    <path d="M712.78,765c18.69.79,35.58,11.2,47.92,27.65,11.33,15.08,18.85,35.25,20.47,57.71.35,4.89-2.52,9.14-6.21,9.14h-405.93c-3.7,0-6.56-4.27-6.2-9.18,3.07-42.53,27.31-76.82,58.51-83.98,49.16-5.85,96.51-5.63,144.16-5.85,49.5-.23,98,0,147.28,4.5Z" style="fill: none; stroke: #000; stroke-linecap: round; stroke-miterlimit: 10; stroke-width: 18px;"/>
    <path d="M712.78,765c18.69.79,35.58,11.2,47.92,27.65,11.33,15.08,18.85,35.25,20.47,57.71.35,4.89-2.52,9.14-6.21,9.14h-405.93c-3.7,0-6.56-4.27-6.2-9.18,3.07-42.53,27.31-76.82,58.51-83.98,49.16-5.85,96.51-5.63,144.16-5.85,49.5-.23,98,0,147.28,4.5Z" style="fill: none; stroke: #000; stroke-linecap: round; stroke-miterlimit: 10; stroke-width: 18px;"/>
    <path d="M712.78,765c18.69.79,35.58,11.2,47.92,27.65,11.33,15.08,18.85,35.25,20.47,57.71.35,4.89-2.52,9.14-6.21,9.14h-405.93c-3.7,0-6.56-4.27-6.2-9.18,3.07-42.53,27.31-76.82,58.51-83.98,49.16-5.85,96.51-5.63,144.16-5.85,49.5-.23,98,0,147.28,4.5Z" style="fill: none; stroke: #000; stroke-linecap: round; stroke-miterlimit: 10; stroke-width: 18px;"/>
  </g>
</svg>