<?xml version="1.0" encoding="UTF-8"?>
<svg xmlns="http://www.w3.org/2000/svg" viewBox="0 0 1080 1080">
  <g id="LIGHT-queen">
    <path d="M682.78,765c18.69.79,35.58,11.2,47.92,27.65,11.33,15.08,18.85,35.25,20.47,57.71.35,4.89-2.52,9.14-6.21,9.14h-405.93c-3.7,0-6.56-4.27-6.2-9.18,3.07-42.53,27.31-76.82,58.51-83.98,49.16-5.85,96.51-5.63,144.16-5.85,49.5-.23,98,0,147.28,4.5Z" style="fill: #fff;"/>
    <rect x="378.5" y="686.5" width="323" height="74" rx="37" ry="37" style="fill: #fafdf6;"/>
    <path d="M454,383.5h33.17l138.83,16.5c10.17-2.52,27-10,33-15,9.49-7.91,21.51,1.48,33.5-1.5,7.93,9.15,15.86,18.3,23.79,27.45-1.4,2.94-5.36,12.35-6.46,14.55-31.81,63.57-65.04,128.71-77.87,190.3-.4,1.9-.77,3.8-1.13,5.7-1.95,10.37-5.05,28.14,2.4,43.82h0s-9.57,21.18-9.57,21.18" style="fill: #fafdf6;"/>
    <polyline points="590.22 760.5 589.96 760.66 589.95 760.66 589.85 760.66 589.72 760.65 586.58 760.5 586.53 760.61 586.48 760.61 525.07 760.54 524.57 760.54 492.92 760.5 493.03 760.73 492.81 760.74 492.8 760.74 492.79 760.74 492.78 760.74 492.77 760.74 492.76 760.74 492.75 760.74 492.74 760.74 492.73 760.74 492.39 760.5" style="fill: #4b4a51;"/>
    <path d="M626,383.5c0-47.5-38.5-86-86-86-8.99,0-17.66,1.38-25.8,3.94-34.89,10.95-60.2,47.56-59.2,95.56-12.53-2.47-20,1-38-13-8.29-6.44-20.2,1.53-30.5-.5-7.61,8.78-15.22,17.57-22.83,26.35.26.51.63,1.26,1.08,2.15,2.1,4.19,5.84,11.66,6.75,13.5,32.79,65.54,67.1,132.74,79,196,2.01,10.72,5.27,29.36-3.19,45.41l6.69,19.59h172" style="fill: #fafdf6;"/>
    <path d="M579,684c6-5.67,12-11.33,18-17-2.07-4.46-3.35-8.08-4-10-19.18-57.05,27.12-119.94,119.72-245.72.08-.11.23-.3.28-.28.99.47-27.3,62.21-62,137-7.33,25-14.67,50-22,75-.67,9.33-1.33,18.67-2,28,1.33,4.67,2.67,9.33,4,14-3,6.67-6,13.33-9,20-14.33-.33-28.67-.67-43-1Z" style="fill: #d8d8d8;"/>
    <path d="M623,397c.62-3.72,1.19-8.87,1-15-.08-2.37-.51-12.53-5-25-3.94-10.93-9.42-19.25-14-25-4.03-4.71-9.29-9.97-16-15-3.1-2.32-6.13-4.3-9-6,2.57,4.38,5.38,9.73,8,16,5.1,12.2,10.43,24.93,8,40-.69,4.28-2.11,9.41-5,15,1.26-.12,2.93-.06,4,1,1.46,1.45.88,3.85,1,5,.29,2.9,5.87,6.27,27,9Z" style="fill: #d8d8d8;"/>
    <path d="M633,758h46.59c1.17-.26,3.4-1.29,5.67-6,.85-1.77,8.6-4.6,9.74-12,1.05-6.83,3.04-14.01,3-18-.04-3.59-2.16-9.46-3-15-.86-5.69-8.03-7.97-8.8-10-.76-2.04-2.49-6.1-5.04-8-1.27-.95-2.37-1.07-3.15-1h-43.44c3.75,1.8,9.85,1.59,14.8,10,.88,1.5,4.26,7.03,5.67,13,1.89,8,2.04,15.87.94,24-.94,7-2.26,8.47-3.78,11-6.21,10.35-14.7,11.12-19.2,12Z" style="fill: #d8d8d8;"/>
    <path d="M743.97,859.5h-405.94c-3.7,0-6.56-2.91-6.2-6.26,3.07-29,27.3-52.37,58.51-57.25,49.16-3.99,96.51-3.84,144.16-3.99h41.4c35.33.16,70.4.86,105.88,3.07,18.69.54,35.58,7.64,47.92,18.85,11.33,10.28,18.85,24.03,20.47,39.35.35,3.33-2.51,6.23-6.2,6.23Z" style="fill: #fafdf6;"/>
    <path d="M385,738c-.39-3.58-.52-9.52,2-16,1.3-3.34,4.07-8.78,13-16,11.66-9.44,24.51-14.38,35-17-10.19-1.22-18.41-.7-24,0-7.6.96-10.57,2.29-12,3-7.44,3.72-11.16,9.87-13,13-1.95,3.32-6.6,11.49-5,22,.75,4.92,2.6,8.67,4,11Z" style="fill: #fff;"/>
    <path d="M449,668c3.26-1.94,8.05-5.37,12-11,6.29-8.96,7.26-18.93,7-29-1.33-51.81-33-93-33-93-6.69-8.7-12.96-15.11-17-19,2.42,5.85,5.94,14.48,10,25,15.73,40.72,23.62,61.54,25,84,.62,10.05.41,24.82-4,43Z" style="fill: #fff;"/>
    <path d="M375,427c-2.67-5.67-5.33-11.33-8-17,5-5.67,10-11.33,15-17-2.19,3.25-5.49,9.04-7,17-1.37,7.23-.7,13.28,0,17Z" style="fill: #fff;"/>
  </g>
  <g id="OUTLINE-queen">
    <path d="M680.78,765c18.69.79,35.58,11.2,47.92,27.65,11.33,15.08,18.85,35.25,20.47,57.71.35,4.89-2.52,9.14-6.21,9.14h-405.93c-3.7,0-6.56-4.27-6.2-9.18,3.07-42.53,27.31-76.82,58.51-83.98,49.16-5.85,96.51-5.63,144.16-5.85,49.5-.23,98,0,147.28,4.5Z" style="fill: none; stroke: #000; stroke-linecap: round; stroke-miterlimit: 10; stroke-width: 18px;"/>
    <rect x="378.5" y="686.5" width="323" height="74" rx="37" ry="37" style="fill: none; stroke: #000; stroke-linecap: round; stroke-miterlimit: 10; stroke-width: 18px;"/>
    <polyline points="485.48 383.5 487.17 383.5 593.52 383.5" style="fill: none; stroke: #000; stroke-linecap: round; stroke-miterlimit: 10; stroke-width: 18px;"/>
    <path d="M623.66,686.5l9.57-21.17h0c-7.45-15.69-4.35-33.46-2.4-43.83.36-1.9.73-3.8,1.13-5.7,12.83-61.59,46.06-126.73,77.87-190.3,1.1-2.2,5.06-11.61,6.46-14.55l-23.79-27.45h-35.02" style="fill: none; stroke: #000; stroke-linecap: round; stroke-miterlimit: 10; stroke-width: 18px;"/>
    <polyline points="590.22 760.5 589.96 760.66 589.95 760.66 589.85 760.66 589.72 760.65 586.58 760.5 586.53 760.61 586.48 760.61 525.07 760.54 524.57 760.54 492.92 760.5 493.03 760.73 492.81 760.74 492.8 760.74 492.79 760.74 492.78 760.74 492.77 760.74 492.76 760.74 492.75 760.74 492.74 760.74 492.73 760.74 492.39 760.5" style="fill: none; stroke: #000; stroke-linecap: round; stroke-miterlimit: 10; stroke-width: 18px;"/>
    <path d="M626,686.5h-172l-6.69-19.59c8.46-16.05,5.2-34.69,3.19-45.41-11.9-63.26-46.21-130.46-79-196-.91-1.84-4.65-9.31-6.75-13.5-.45-.89-.82-1.64-1.08-2.15l22.83-26.35h35.02" style="fill: none; stroke: #000; stroke-linecap: round; stroke-miterlimit: 10; stroke-width: 18px;"/>
    <line x1="633.23" y1="665.33" x2="633.23" y2="665.32" style="fill: none; stroke: #000; stroke-linecap: round; stroke-miterlimit: 10; stroke-width: 18px;"/>
    <path d="M485.48,383.5c0,.17.02.33.02.5,0,8.56-14.33,15.5-32,15.5s-32-6.94-32-15.5c0-.17.01-.33.02-.5" style="fill: none; stroke: #000; stroke-miterlimit: 10; stroke-width: 18px;"/>
    <path d="M657.48,383.5c.01.17.02.33.02.5,0,8.56-14.33,15.5-32,15.5s-32-6.94-32-15.5c0-.17.01-.33.02-.5" style="fill: none; stroke: #000; stroke-miterlimit: 10; stroke-width: 18px;"/>
    <path d="M624.27,399.49c.81-4.71,1.23-9.55,1.23-14.49,0-47.22-38.28-85.5-85.5-85.5s-85.5,38.28-85.5,85.5c0,4.93.42,9.76,1.23,14.46" style="fill: none; stroke: #000; stroke-miterlimit: 10; stroke-width: 18px;"/>
  </g>
</svg>